<svg id="Layer_1" data-name="Layer 1" xmlns="http://www.w3.org/2000/svg" viewBox="0 0 452.91 275.48"><defs><style>.cls-1{fill:#fff;}</style></defs><title>delivery</title><path class="cls-1" d="M44.55,60.89a12.92,12.92,0,0,0,0,25.83H173.91a12.92,12.92,0,1,0,0-25.83Z"/><path class="cls-1" d="M12.91,123.07a12.92,12.92,0,0,0,0,25.83H142.27a12.92,12.92,0,1,0,0-25.83Z"/><path class="cls-1" d="M432.85,133.69H416.4l-46.23-72H315.91V0h-261V46.72h119a27.09,27.09,0,1,1,0,54.17h-119v8h87.36a27.09,27.09,0,1,1,0,54.17H54.91v71.17H91a51.24,51.24,0,0,1,102.15,0H302.7a51.25,51.25,0,0,1,102.16,0h48.05V153.75A20.06,20.06,0,0,0,432.85,133.69Zm-116.16,0v-60l38.3.13,37.7,59.88Z"/><path class="cls-1" d="M142.06,201.31a37.09,37.09,0,1,0,37.09,37.08A37.12,37.12,0,0,0,142.06,201.31Zm0,56.52a19.44,19.44,0,1,1,19.44-19.44A19.43,19.43,0,0,1,142.06,257.83Z"/><path class="cls-1" d="M353.78,201.31a37.09,37.09,0,1,0,37.09,37.08A37.13,37.13,0,0,0,353.78,201.31Zm0,56.52a19.44,19.44,0,1,1,19.43-19.44A19.44,19.44,0,0,1,353.78,257.83Z"/></svg>