<svg id="Layer_1" data-name="Layer 1" xmlns="http://www.w3.org/2000/svg" viewBox="0 0 356 216.13"><defs><style>.cls-1{fill:#fff;}</style></defs><title>icon</title><path class="cls-1" d="M35.15,47.77a10.13,10.13,0,0,0,0,20.26H136.64a10.13,10.13,0,1,0,.56-20.26,5.23,5.23,0,0,0-.56,0Z"/><path class="cls-1" d="M10.33,96.55a10.14,10.14,0,0,0,0,20.27H111.82a10.14,10.14,0,0,0,.56-20.27h-102Z"/><path class="cls-1" d="M339.79,104.88H326.88L290.61,48.4H248V0H43.28V36.65h93.36a21.25,21.25,0,1,1,.82,42.5H43.28v6.28h68.54a21.25,21.25,0,0,1,.81,42.5H43.28v55.83H71.59a40.2,40.2,0,0,1,80.14,0h86a40.21,40.21,0,0,1,80.15,0h37.69V120.62A15.74,15.74,0,0,0,339.79,104.88Zm-91.14,0V57.81l30,.1,29.58,47Z"/><path class="cls-1" d="M111.65,157.93a29.1,29.1,0,1,0,29.1,29.1h0A29.13,29.13,0,0,0,111.65,157.93Zm0,44.35A15.26,15.26,0,1,1,126.9,187a15.26,15.26,0,0,1-15.25,15.26Z"/><path class="cls-1" d="M277.75,157.93a29.1,29.1,0,1,0,29.1,29.1h0A29.13,29.13,0,0,0,277.75,157.93Zm0,44.35A15.26,15.26,0,1,1,293,187h0A15.27,15.27,0,0,1,277.75,202.28Z"/></svg>