<svg xmlns="http://www.w3.org/2000/svg" viewBox="0 0 274.96 97.78"><defs><style>.cls-1{fill:#20a6df;}.cls-2{fill:#282f6a;}.cls-3{fill:#248f37;}</style></defs><title>logo</title><g id="Слой_5" data-name="Слой 5"><path class="cls-1" d="M52,60c10.12,4.39,17.1,2.69,21,0-2.32-1.64-15.14-10.7-17.73-12.55a4.07,4.07,0,0,1-2.11-3.66V17.21L47.23,13V41.36c0,.73-.8,1.31-1.81,1.31s-1.81-.63-1.81-1.35V13l-5.92,4.22V43.85a4,4,0,0,1-2.11,3.66L17.91,60.06v2.19c0-.1,0,0,.56-1.12C20.86,57.12,30.63,50.78,52,60Z"/><path class="cls-2" d="M27.65,24.2V44.61A3.1,3.1,0,0,1,27.31,46a3.69,3.69,0,0,1-.87.85l-2.55,1.81V26.89L18,31.1l-.07,22.46h0V60L33.56,48.89V20Z"/><path class="cls-3" d="M52.68,61.88c-26.66-11.25-34.44-.43-34.44,4,7.53.93,15,5.16,18.58,6.61C55.73,80.13,67.82,68,65.68,70c-15,14.13-35.37,2.92-40.52.38C16.38,66.09,8.7,72.07,8.7,72.07s7-3.56,16.16,3.23c10.86,8,21.12,8,21.57,8,24.1.64,31.46-27.13,31.46-27.13S71.36,69.76,52.68,61.88Z"/><path class="cls-2" d="M63.25,24.2V44.61A3.1,3.1,0,0,0,63.59,46a3.69,3.69,0,0,0,.87.85L67,48.63V26.89l5.92,4.21L73,53.56h0V60L57.34,48.89V20Z"/><path class="cls-3" d="M103.62,33.13l-.13,4.53q-6.37-.3-11.31-.3.31,3.14.32,9.45,0,8.25.18,12.16H87.17q.24-5.4.24-12.86,0-8.67-.24-13Z"/><path class="cls-3" d="M126.72,39.9a7.72,7.72,0,0,1-3.52,7,15.57,15.57,0,0,1-8.62,2.27c-.62,0-1.06,0-1.32,0q0,3.72.21,9.84h-5.56q.25-5.73.26-13.51c0-4.77-.09-8.87-.26-12.33h3.44q.74,0,2.82-.06c1.38,0,2.58,0,3.6,0a11.27,11.27,0,0,1,6.35,1.7A5.79,5.79,0,0,1,126.72,39.9ZM121.61,41q0-4.25-5.62-4.25a15.74,15.74,0,0,0-3,.3c.14,2.5.22,5.33.22,8.5q.49,0,1.14,0C119.2,45.57,121.61,44.05,121.61,41Z"/><path class="cls-3" d="M153.24,59h-5.61q.28-3.27.28-9.9,0-2.68.22-7.56h-.3a28.24,28.24,0,0,1-5.49,8.76C137.87,55.21,136,57,135.72,59h-4.28q.33-5.26.34-12.26t-.34-13.58H137c-.18,3.36-.28,7-.28,10.9,0,1.74-.09,3.93-.27,6.55h.29A47.13,47.13,0,0,1,142.34,42c3.46-4.24,5.83-5.48,6.58-8.91h4.32q-.3,6.45-.3,13.58T153.24,59Z"/><path class="cls-3" d="M180.72,59h-5.6q.19-6.57.2-11.39h-10q0,4.32.2,11.39h-5.6q.26-6.55.25-13.51t-.25-12.33h5.6q-.24,5.58-.24,10.32h10.06q0-4.19-.24-10.32h5.6q-.27,5-.27,12.33Q180.45,53.05,180.72,59Z"/><path class="cls-2" d="M206.59,33.13q-.24,5.26-.24,12,0,7.53.24,13.79H201q.24-5.72.24-13.26,0-5.24-.12-8.65h-3.11c-.19,1-.45,2.11-.76,3.28s-.67,2.35-1.08,3.58-.86,2.44-1.35,3.66-1,2.39-1.61,3.52a32.91,32.91,0,0,1-1.82,3.17,18.79,18.79,0,0,1-2,2.57,10.11,10.11,0,0,1-2.17,1.75,5.06,5.06,0,0,1-2.3.72L184,53.1c2.48.56,3.64-1.46,4.29-2.55a40.13,40.13,0,0,0,1.95-3.74c.63-1.41,1.24-2.88,1.8-4.42s1.06-3.11,1.5-4.69a43.79,43.79,0,0,0,1-4.57Z"/><path class="cls-2" d="M236.16,45.57a14.25,14.25,0,0,1-3.72,10.1,12,12,0,0,1-9.2,4A11.59,11.59,0,0,1,214.49,56,13,13,0,0,1,211,46.65a14.27,14.27,0,0,1,3.72-10.1,12.05,12.05,0,0,1,9.21-4,11.63,11.63,0,0,1,8.75,3.67A13,13,0,0,1,236.16,45.57Zm-5.46.58a10.29,10.29,0,0,0-2.12-6.73,6.5,6.5,0,0,0-5.22-2.58,6,6,0,0,0-4.91,2.6,10.4,10.4,0,0,0-2,6.57,10.3,10.3,0,0,0,2.12,6.72,6.54,6.54,0,0,0,5.22,2.59,6,6,0,0,0,4.91-2.61A10.39,10.39,0,0,0,230.7,46.15Z"/><path class="cls-2" d="M259.39,54.27l-.34,4.56a23.69,23.69,0,0,1-5.54.67q-6.8,0-10.35-3.76a12.79,12.79,0,0,1-3.55-9.13,14,14,0,0,1,3.77-9.71q3.76-4.12,10.34-4.12a18.36,18.36,0,0,1,4.58.55l-.7,4.59a14.32,14.32,0,0,0-4.47-.76q-4,0-6,2.55a9.86,9.86,0,0,0-2,6.2,9.67,9.67,0,0,0,2.33,6.47A8.07,8.07,0,0,0,254,55.12,19.32,19.32,0,0,0,259.39,54.27Z"/><path class="cls-2" d="M95.14,71.52a2.59,2.59,0,0,1-1.31,2.4,6.36,6.36,0,0,1-3.31.78l-2.29,0c.1-.7.31-2.39.62-5.08.18-1.74.29-3.27.31-4.58h.92l1.07,0,1.16,0a3.39,3.39,0,0,1,2,.53A1.7,1.7,0,0,1,95,67a2.51,2.51,0,0,1-.44,1.43,2.15,2.15,0,0,1-1.2.89v.08a2.19,2.19,0,0,1,1.22.69A2.06,2.06,0,0,1,95.14,71.52Zm-1.22.08c0-1.06-1-1.6-2.9-1.6-.37,0-.75,0-1.14,0q-.21,2-.3,3.54a9.74,9.74,0,0,0,1.31.07A4.93,4.93,0,0,0,93,73.23,1.63,1.63,0,0,0,93.92,71.6Zm-.11-4.36c0-.89-.6-1.33-1.81-1.33a12.74,12.74,0,0,0-1.74.11c0,.11-.09,1.12-.28,3h.9a5.4,5.4,0,0,0,2-.27A1.54,1.54,0,0,0,93.81,67.24Z"/><path class="cls-2" d="M103.39,70.24a5.15,5.15,0,0,1-1,3.31,3.31,3.31,0,0,1-2.76,1.3,2.55,2.55,0,0,1-1.73-.49h-.06c-.14,1.38-.25,2.58-.32,3.61L96.17,78q.93-6.84.93-8.73A14,14,0,0,0,97,67.63l1.26-.19c0,.42,0,1,0,1.73h.06a3,3,0,0,1,2.69-1.8,2.14,2.14,0,0,1,1.71.78A3.15,3.15,0,0,1,103.39,70.24Zm-1.27.44c0-1.52-.54-2.29-1.61-2.29a2.07,2.07,0,0,0-1.57,1,4.47,4.47,0,0,0-.9,2.38l-.14,1.68a2.67,2.67,0,0,0,1.39.43,2.54,2.54,0,0,0,2.12-.89A3.66,3.66,0,0,0,102.12,70.68Z"/><path class="cls-2" d="M110.85,69a1.63,1.63,0,0,1-.92,1.52,9,9,0,0,1-4,.72,3.25,3.25,0,0,0,.47,2,1.86,1.86,0,0,0,1.56.6,4.62,4.62,0,0,0,2.35-.76l-.19,1.1a4.13,4.13,0,0,1-2.48.72,2.66,2.66,0,0,1-2.23-.91,3.57,3.57,0,0,1-.72-2.3,4.25,4.25,0,0,1,1.2-3.21,3.88,3.88,0,0,1,2.77-1.16,2.71,2.71,0,0,1,1.59.46A1.49,1.49,0,0,1,110.85,69Zm-1.18,0a.66.66,0,0,0-.36-.6,1.83,1.83,0,0,0-.93-.21,2.42,2.42,0,0,0-1.51.53,2.59,2.59,0,0,0-.9,1.64,8,8,0,0,0,3.13-.48A1,1,0,0,0,109.67,69Z"/><path class="cls-2" d="M120.43,67.53a68.85,68.85,0,0,0-.35,7.12l-1.19.08c0-.58.06-1.59.16-3s.2-2.44.29-3h-.09c-.11.3-.59,1.3-1.45,3a18.36,18.36,0,0,0-1.33,2.9l-1,.15a20.24,20.24,0,0,0-.42-3.52c-.28-1.49-.43-2.33-.44-2.53h-.09a14.48,14.48,0,0,1-1.15,3.89c-.59,1.34-1.31,2.07-2.16,2.21l.06-1.19a5.61,5.61,0,0,0,1.86-3,12.81,12.81,0,0,0,.72-2.91l1.58-.14a25.48,25.48,0,0,0,.43,2.57,19.72,19.72,0,0,1,.42,3.14h.08a11.87,11.87,0,0,1,1.2-2.76,11.25,11.25,0,0,0,1.19-2.81Z"/><path class="cls-2" d="M127.89,69.11a23.08,23.08,0,0,1-.25,2.46,23.78,23.78,0,0,0-.25,3.08l-1.25.08a14.91,14.91,0,0,1,.15-1.58c.11-.78.18-1.32.23-1.62a10.55,10.55,0,0,1-1.79.14c-1.12,2-2.29,3-3.51,3.11l.06-1.19c.66,0,1.49-.75,2.5-2.09v-.07a1.94,1.94,0,0,1-1.52-1.94,1.87,1.87,0,0,1,.84-1.65,4.58,4.58,0,0,1,2.55-.57C127.15,67.27,127.89,67.88,127.89,69.11Zm-1.09.36a1.29,1.29,0,0,0-.32-1,1.65,1.65,0,0,0-1.12-.29,2.43,2.43,0,0,0-1.59.35,1.13,1.13,0,0,0-.38.86c0,.92.58,1.38,1.73,1.38a7.21,7.21,0,0,0,1.5-.14A4,4,0,0,0,126.8,69.47Z"/><path class="cls-2" d="M144.16,67.49l-.3,1.09a1.34,1.34,0,0,0-.56-.13,1.5,1.5,0,0,0-1.27.69,4.09,4.09,0,0,0-.57,2.36c0,1.49.36,2.23,1.09,2.23a2.57,2.57,0,0,0,1.25-.36l-.19,1a2.34,2.34,0,0,1-1.38.39,1.51,1.51,0,0,1-1.35-.7,3.27,3.27,0,0,1-.47-1.88,4.14,4.14,0,0,1,.42-2l0,0-1.25,1.57a5.55,5.55,0,0,0-1.14,1.84,6.81,6.81,0,0,0-.05,1.05l-1.24.08c0-.11.09-.68.26-1.71s.34-2.11.41-2.78h-.07a17.19,17.19,0,0,1-2.82,3.36,2,2,0,0,1-.88.88,2.46,2.46,0,0,1-1.16.31,1.92,1.92,0,0,1-.78-.13l.31-1.09a1.34,1.34,0,0,0,.56.13A1.48,1.48,0,0,0,134.2,73a4,4,0,0,0,.58-2.37c0-1.48-.36-2.22-1.1-2.22a2.73,2.73,0,0,0-1.24.35l.18-1a2.34,2.34,0,0,1,1.38-.39,1.52,1.52,0,0,1,1.36.7,3.33,3.33,0,0,1,.47,1.88,4.89,4.89,0,0,1-.42,2.08l0,0,1.25-1.57a5.54,5.54,0,0,0,1.14-1.83,6.73,6.73,0,0,0,0-1.05l1.23-.07c0,.09-.08.66-.26,1.7s-.33,2.11-.4,2.79h.07a15.14,15.14,0,0,1,2.82-3.47,2.18,2.18,0,0,1,.9-.88,2.38,2.38,0,0,1,1.13-.31A1.86,1.86,0,0,1,144.16,67.49Z"/><path class="cls-2" d="M151.64,67.45a54.4,54.4,0,0,0-.52,5.48,12.76,12.76,0,0,0,.12,1.68l-1.26.18c0-.43,0-1,0-1.73h-.06a2.94,2.94,0,0,1-2.66,1.81c-1.29,0-1.94-.74-1.94-2.21,0-.39.06-1.18.17-2.38s.17-2.09.17-2.68l1.28-.15c0,.21-.07.92-.23,2.13a24.24,24.24,0,0,0-.23,2.72,1.74,1.74,0,0,0,.32,1.2,1.28,1.28,0,0,0,1,.34,2,2,0,0,0,1.55-1.06,4.86,4.86,0,0,0,.88-2.33c.11-1.21.17-2.16.17-2.85Z"/><path class="cls-2" d="M153.06,74.73a46.2,46.2,0,0,0,.52-5.2,18.34,18.34,0,0,0-.12-1.9l1.26-.19c0,.37,0,1,0,1.73h.06a3,3,0,0,1,2.58-1.8q1.56,0,1.56,1.8H159a3,3,0,0,1,2.57-1.8,1.42,1.42,0,0,1,1.27.53,3,3,0,0,1,.34,1.59c0,.48,0,1.3-.16,2.48s-.16,2.07-.16,2.68l-1.29.08c0-.21.07-.91.22-2.12s.22-2,.22-2.45a3,3,0,0,0-.23-1.39.73.73,0,0,0-.66-.38,1.94,1.94,0,0,0-1.57,1.11,5.2,5.2,0,0,0-.82,2.29,27.66,27.66,0,0,0-.16,2.86l-1.28.08c0-.22.08-.94.25-2.17s.25-2,.25-2.4a2.77,2.77,0,0,0-.24-1.39.73.73,0,0,0-.66-.38,1.94,1.94,0,0,0-1.55,1.11,5,5,0,0,0-.84,2.29c-.11,1.21-.2,2.16-.25,2.86Z"/><path class="cls-2" d="M170.58,72.24a2.21,2.21,0,0,1-1,1.92,4.06,4.06,0,0,1-2.39.69,2.61,2.61,0,0,1-1.6-.46A1.66,1.66,0,0,1,165,73c0-.39.05-1.24.16-2.53s.17-2.24.17-2.83l1.33-.15c-.07.47-.2,1.41-.37,2.82h.07a4.53,4.53,0,0,1,1.32-.21,3.84,3.84,0,0,1,2.17.51A1.84,1.84,0,0,1,170.58,72.24Zm-1.13.09c0-.92-.68-1.38-2-1.38a7.08,7.08,0,0,0-1.23.12,10.25,10.25,0,0,0-.1,1.53q0,1.32,1.47,1.32a2.25,2.25,0,0,0,1.33-.4A1.36,1.36,0,0,0,169.45,72.33Z"/><path class="cls-2" d="M181.43,67.57c0,.17-.35.6-1,1.31a18.4,18.4,0,0,1-1.62,1.49v.07a9.81,9.81,0,0,1,1.39,2.37,6.35,6.35,0,0,1,.61,1.84l-1.34.08a6.1,6.1,0,0,0-.39-1.45,9,9,0,0,0-1.06-2.1,7.43,7.43,0,0,0-1.18,1.45,4.13,4.13,0,0,0-.68,2l-1.26.08c.08-.48.24-1.63.46-3.47a24.78,24.78,0,0,0,.16-2.73c0-.35,0-.64,0-.87l1.36-.21c0,.27-.07.88-.19,1.84s-.23,1.93-.33,2.91h.07a12,12,0,0,1,2-2.52A7.38,7.38,0,0,0,180,67.53Z"/><path class="cls-2" d="M189,70.51a4.76,4.76,0,0,1-1.07,3.11A3.51,3.51,0,0,1,185,74.94a2.6,2.6,0,0,1-2-.94,3.49,3.49,0,0,1-.84-2.43,4.58,4.58,0,0,1,1.07-3,3.6,3.6,0,0,1,2.87-1.27,2.67,2.67,0,0,1,2,.88A3.29,3.29,0,0,1,189,70.51Zm-1.26.21a3.16,3.16,0,0,0-.47-1.77,1.5,1.5,0,0,0-1.36-.74,2,2,0,0,0-1.77,1,4.1,4.1,0,0,0-.66,2.25,3.22,3.22,0,0,0,.48,1.78,1.55,1.55,0,0,0,1.38.74A2,2,0,0,0,187,73,4.18,4.18,0,0,0,187.69,70.72Z"/><path class="cls-2" d="M198.77,67.53a66.16,66.16,0,0,0-.35,7.12l-1.19.08c0-.58.05-1.59.16-3s.2-2.44.29-3h-.09c-.11.3-.59,1.3-1.45,3a20.23,20.23,0,0,0-1.34,2.9l-1,.15a21.06,21.06,0,0,0-.41-3.52c-.29-1.49-.43-2.33-.44-2.53h-.09a14.85,14.85,0,0,1-1.15,3.89c-.59,1.34-1.31,2.07-2.17,2.21l.06-1.19a5.56,5.56,0,0,0,1.87-3,12.81,12.81,0,0,0,.72-2.91l1.58-.14c0,.22.14,1.08.42,2.57a18.91,18.91,0,0,1,.43,3.14h.08a12.12,12.12,0,0,1,1.19-2.76,11,11,0,0,0,1.2-2.81Z"/><path class="cls-2" d="M209.65,70.1a4.38,4.38,0,0,1-1.28,3.28,4.7,4.7,0,0,1-3.12,1.34,6.14,6.14,0,0,1-.63,2.29A2.15,2.15,0,0,1,203,78.07l-.29-.58a3.08,3.08,0,0,0,.95-1,6.77,6.77,0,0,0,.53-2.53h-.07a2.09,2.09,0,0,1-1.84.81,1.7,1.7,0,0,1-1.5-.77,3.55,3.55,0,0,1-.52-2,4.33,4.33,0,0,1,1.27-3.27,4.6,4.6,0,0,1,3.12-1.34c.21-1.88.95-2.9,2.23-3.06l.3.58a1.86,1.86,0,0,0-1,.86,7.33,7.33,0,0,0-.47,2.43h.06a2.09,2.09,0,0,1,1.84-.81,1.71,1.71,0,0,1,1.51.76A3.62,3.62,0,0,1,209.65,70.1Zm-5-1.94a3.13,3.13,0,0,0-2.3,1,3.85,3.85,0,0,0-.85,2.7,2.33,2.33,0,0,0,.35,1.35,1.06,1.06,0,0,0,.89.49,1.57,1.57,0,0,0,1.12-.38,1.44,1.44,0,0,0,.48-1C204.36,71.91,204.47,70.51,204.64,68.16Zm3.8,2a2.25,2.25,0,0,0-.35-1.35,1,1,0,0,0-.88-.49,1.62,1.62,0,0,0-1.13.38,1.43,1.43,0,0,0-.47,1c0,.45-.14,1.85-.31,4.2a3.15,3.15,0,0,0,2.3-1A3.94,3.94,0,0,0,208.44,70.16Z"/><path class="cls-2" d="M217.7,70.51a4.77,4.77,0,0,1-1.08,3.11,3.5,3.5,0,0,1-2.85,1.32,2.59,2.59,0,0,1-2-.94,3.45,3.45,0,0,1-.85-2.43,4.54,4.54,0,0,1,1.08-3,3.58,3.58,0,0,1,2.86-1.27,2.67,2.67,0,0,1,2,.88A3.3,3.3,0,0,1,217.7,70.51Zm-1.26.21A3.24,3.24,0,0,0,216,69a1.52,1.52,0,0,0-1.37-.74,2,2,0,0,0-1.76,1,4.1,4.1,0,0,0-.66,2.25,3.22,3.22,0,0,0,.48,1.78A1.55,1.55,0,0,0,214,74a2,2,0,0,0,1.75-1A4.1,4.1,0,0,0,216.44,70.72Z"/><path class="cls-2" d="M225.86,70.24a5.15,5.15,0,0,1-1,3.31,3.31,3.31,0,0,1-2.76,1.3,2.54,2.54,0,0,1-1.73-.49h-.06c-.14,1.38-.25,2.58-.32,3.61l-1.32.07q.93-6.84.93-8.73a14,14,0,0,0-.12-1.68l1.26-.19c0,.42,0,1,0,1.73h.06a3,3,0,0,1,2.69-1.8,2.1,2.1,0,0,1,1.7.78A3.1,3.1,0,0,1,225.86,70.24Zm-1.27.44c0-1.52-.54-2.29-1.61-2.29a2.1,2.1,0,0,0-1.58,1,4.54,4.54,0,0,0-.89,2.38l-.15,1.68a2.71,2.71,0,0,0,1.4.43,2.55,2.55,0,0,0,2.12-.89A3.66,3.66,0,0,0,224.59,70.68Z"/><path class="cls-2" d="M227.21,74.73a48.81,48.81,0,0,0,.52-5.2,18.34,18.34,0,0,0-.12-1.9l1.25-.19c0,.37,0,1,0,1.73H229a3,3,0,0,1,2.57-1.8q1.56,0,1.56,1.8h.07a3,3,0,0,1,2.56-1.8,1.41,1.41,0,0,1,1.27.53,3,3,0,0,1,.35,1.59c0,.48-.06,1.3-.16,2.48S237,74,237,74.65l-1.3.08c0-.21.08-.91.22-2.12a23.87,23.87,0,0,0,.22-2.45,3,3,0,0,0-.22-1.39.74.74,0,0,0-.67-.38,1.94,1.94,0,0,0-1.56,1.11,5.22,5.22,0,0,0-.83,2.29c-.1,1-.15,2-.15,2.86l-1.29.08c0-.22.09-.94.25-2.17a22.5,22.5,0,0,0,.25-2.4,2.91,2.91,0,0,0-.23-1.39.73.73,0,0,0-.66-.38,2,2,0,0,0-1.56,1.11,5.14,5.14,0,0,0-.83,2.29c-.12,1.21-.2,2.16-.25,2.86Z"/><path class="cls-2" d="M245.23,67.46c0,.41-.09,1.5-.28,3.28-.17,1.62-.27,2.93-.3,3.91l-1.26.08c0-.17.07-.64.19-1.4s.22-1.51.28-2.24h-.07c0,.25-.2.37-.51.37l-1.1,0-1.06,0a.59.59,0,0,0-.63.45,18.64,18.64,0,0,0-.3,2.81l-1.25.08c.08-.48.23-1.63.45-3.47a24.78,24.78,0,0,0,.16-2.73c0-.35,0-.66,0-.91l1.24-.16c0,.24-.08,1.33-.25,3.27h.07c0-.24.24-.37.55-.37l1.07,0,1.1,0q.57,0,.69-.72c0-.06,0-.46,0-1.19a6.15,6.15,0,0,0-.05-.91Z"/><path class="cls-2" d="M253.38,70.51a4.77,4.77,0,0,1-1.08,3.11,3.5,3.5,0,0,1-2.85,1.32,2.6,2.6,0,0,1-2-.94,3.49,3.49,0,0,1-.84-2.43,4.54,4.54,0,0,1,1.08-3,3.57,3.57,0,0,1,2.86-1.27,2.67,2.67,0,0,1,2,.88A3.3,3.3,0,0,1,253.38,70.51Zm-1.27.21a3.16,3.16,0,0,0-.47-1.77,1.49,1.49,0,0,0-1.36-.74,2,2,0,0,0-1.76,1,4,4,0,0,0-.67,2.25,3.22,3.22,0,0,0,.48,1.78,1.55,1.55,0,0,0,1.38.74,2,2,0,0,0,1.75-1A4.09,4.09,0,0,0,252.11,70.72Z"/><path class="cls-2" d="M256.36,73.43a1.28,1.28,0,0,1-.33.87,1.1,1.1,0,0,1-.84.37c-.5,0-.76-.29-.76-.85a1.22,1.22,0,0,1,.33-.86,1.12,1.12,0,0,1,.84-.35C256.11,72.61,256.36,72.88,256.36,73.43Zm.75-7.77a19.08,19.08,0,0,1-1.17,5h-.44c0-1.33,0-2.41,0-3.26,0-1.73.35-2.6,1-2.6C256.91,64.81,257.11,65.09,257.11,65.66Z"/></g></svg>