<svg id="Layer_1" data-name="Layer 1" xmlns="http://www.w3.org/2000/svg" viewBox="0 0 359.88 359.93"><defs><style>.cls-1{fill:#fff;}</style></defs><title>phone_call</title><path class="cls-1" d="M179.92,0c98.81-.22,179.83,80.44,180,179.34A179.77,179.77,0,0,1,182,359.92C82,361,.49,281.1,0,181.2A179.67,179.67,0,0,1,179.92,0Zm57,288.05a17,17,0,0,0,4-1.49c16.37-10.31,31.25-22.42,43.92-37.09,4.42-5.11,4.18-8.15-1.27-12.24-14.92-11.18-30.68-21-47.75-28.64-5.34-2.39-7.16-1.86-11.19,2.52-4.23,4.59-8.39,9.26-12.37,14.07-2.24,2.72-4.61,3.34-7.8,2-4.36-1.86-8.93-3.26-13.16-5.35q-42.49-21-58.41-65.69c-1.34-3.76-1.07-6.48,2.28-9.06,4.24-3.28,8.21-6.93,12.19-10.53,6.16-5.58,7-7.28,2.93-14.52q-12.78-22.62-26.82-44.53c-4.51-7.06-8-7.23-14.31-1.57a199.78,199.78,0,0,0-35.5,42.38,11.27,11.27,0,0,0-1.44,7.39,163,163,0,0,0,5.42,22.12c9,26.3,24.41,48.81,42.81,69.34,23.69,26.43,50.89,48.26,83.87,62.19A113.53,113.53,0,0,0,237,288.05ZM287.7,172.19c.35-59.76-51.94-102.17-99.94-99.64v14.8c23.24.54,43.31,8.55,59.7,24.91S272,148.9,272.55,172.19Zm-38.91,0c2.13-34.42-31.71-64.05-61-60.88v14.6c12.7.47,23.58,4.82,32.47,13.68s13.25,20,13.79,32.6Z"/></svg>