<svg id="Layer_1" data-name="Layer 1" xmlns="http://www.w3.org/2000/svg" viewBox="0 0 356 216.13"><defs><style>.cls-1{fill:#fff;}</style></defs><title>icon</title><path class="cls-1" d="M190.71,216.13a17.36,17.36,0,0,0,4-1.49c16.37-10.31,31.25-22.42,43.92-37.09,4.42-5.11,4.18-8.15-1.27-12.24a250.71,250.71,0,0,0-47.75-28.64c-5.34-2.39-7.16-1.86-11.19,2.52-4.23,4.59-8.39,9.26-12.37,14.07-2.24,2.72-4.61,3.34-7.8,2-4.36-1.86-8.93-3.26-13.16-5.35q-42.48-21-58.41-65.69c-1.34-3.76-1.07-6.48,2.28-9.06,4.24-3.28,8.21-6.93,12.19-10.53,6.16-5.58,7-7.28,2.93-14.52Q91.3,27.49,77.26,5.58C72.75-1.48,69.26-1.65,63,4a199.73,199.73,0,0,0-35.5,42.38A11.24,11.24,0,0,0,26,53.78,163.32,163.32,0,0,0,31.43,75.9c9,26.3,24.41,48.81,42.81,69.34,23.65,26.43,50.89,48.26,83.87,62.19a113.53,113.53,0,0,0,32.68,8.7Zm50.78-115.86C241.89,40.51,189.55-1.9,141.55.63v14.8c23.24.57,43.34,8.57,59.7,24.91S225.79,77,226.34,100.27Zm-38.91,0c2.13-34.42-31.71-64-61-60.88V54c12.7.47,23.58,4.82,32.47,13.68s13.25,20,13.79,32.6Z"/></svg>