<svg id="Layer_1" data-name="Layer 1" xmlns="http://www.w3.org/2000/svg" viewBox="0 0 215.83 216.13"><defs><style>.cls-1{fill:#fff;}</style></defs><title>phone_call-01</title><path class="cls-1" d="M164.82,216.13a17.19,17.19,0,0,0,4-1.49c16.37-10.31,31.25-22.42,43.92-37.09,4.42-5.11,4.18-8.15-1.27-12.24a250.3,250.3,0,0,0-47.75-28.64c-5.34-2.39-7.16-1.86-11.19,2.52-4.23,4.59-8.39,9.26-12.37,14.07-2.24,2.72-4.61,3.34-7.8,2-4.36-1.86-8.93-3.26-13.16-5.35q-42.48-21-58.41-65.69c-1.34-3.76-1.07-6.48,2.28-9.06,4.24-3.28,8.21-6.93,12.19-10.53,6.16-5.58,7-7.28,2.93-14.52Q65.41,27.49,51.37,5.58c-4.51-7.06-8-7.23-14.31-1.57A199.78,199.78,0,0,0,1.56,46.39,11.28,11.28,0,0,0,.12,53.78,163.32,163.32,0,0,0,5.54,75.9c9,26.3,24.41,48.81,42.81,69.34C72,171.67,99.24,193.5,132.22,207.43a113.7,113.7,0,0,0,32.68,8.7ZM215.6,100.27C216,40.51,163.66-1.9,115.66.63v14.8C138.9,16,159,24,175.36,40.34S199.9,77,200.45,100.27Zm-38.91,0c2.13-34.42-31.71-64-61-60.88V54c12.7.47,23.58,4.82,32.47,13.68s13.25,20,13.79,32.6Z"/></svg>